<svg width="34" height="34" viewBox="0 0 34 34" fill="none" xmlns="http://www.w3.org/2000/svg">
<rect x="0.400024" width="33.6" height="33.6" rx="6" fill="#F6F8FC"/>
<path d="M17.1337 10.8638C19.03 10.8638 19.3009 10.8638 20.0233 10.8638C20.7457 10.8638 21.1069 11.0444 21.3778 11.1347C21.739 11.225 21.9197 11.4056 22.1906 11.6765C22.4615 11.9474 22.642 12.128 22.7323 12.4892C22.8226 12.7601 22.9129 13.1213 23.0032 13.8437C23.0032 14.5661 23.0032 14.837 23.0032 16.7333C23.0032 18.6297 23.0032 18.9005 23.0032 19.6229C23.0032 20.3453 22.8226 20.7065 22.7323 20.9774C22.642 21.3387 22.4615 21.5193 22.1906 21.7902C21.9197 22.0611 21.739 22.2417 21.3778 22.332C21.1069 22.4223 20.7457 22.5126 20.0233 22.6029C19.3009 22.6029 19.03 22.6029 17.1337 22.6029C15.2374 22.6029 14.9665 22.6029 14.2441 22.6029C13.5217 22.6029 13.1605 22.4223 12.8896 22.332C12.5284 22.2417 12.3478 22.0611 12.0769 21.7902C11.806 21.5193 11.6254 21.3387 11.5351 20.9774C11.4448 20.7065 11.3545 20.3453 11.2642 19.6229C11.2642 18.9005 11.2642 18.6297 11.2642 16.7333C11.2642 14.837 11.2642 14.5661 11.2642 13.8437C11.2642 13.1213 11.4448 12.7601 11.5351 12.4892C11.6254 12.128 11.806 11.9474 12.0769 11.6765C12.3478 11.4056 12.5284 11.225 12.8896 11.1347C13.1605 11.0444 13.5217 10.9541 14.2441 10.8638C14.9665 10.8638 15.2374 10.8638 17.1337 10.8638ZM17.1337 9.59961C15.1471 9.59961 14.9665 9.59961 14.1538 9.59961C13.4314 9.59961 12.8896 9.7802 12.4381 9.96081C11.9866 10.1414 11.5351 10.4123 11.1739 10.7735C10.8127 11.1347 10.5418 11.5862 10.3612 12.0377C10.1806 12.4892 10.0903 13.031 10 13.7534C10 14.5661 10 14.7467 10 16.7333C10 18.72 10 18.9005 10 19.7132C10 20.526 10.1806 20.9774 10.3612 21.429C10.5418 21.8805 10.8127 22.332 11.1739 22.6932C11.5351 23.0544 11.9866 23.3253 12.4381 23.5059C12.8896 23.6865 13.4314 23.7768 14.1538 23.8671C14.9665 23.8671 15.1471 23.8671 17.1337 23.8671C19.1203 23.8671 19.301 23.8671 20.1137 23.8671C20.9264 23.8671 21.3778 23.6865 21.8293 23.5059C22.2808 23.3253 22.7324 23.0544 23.0936 22.6932C23.4548 22.332 23.7256 21.8805 23.9062 21.429C24.0868 20.9774 24.1772 20.4357 24.2675 19.7132C24.2675 18.9005 24.2675 18.72 24.2675 16.7333C24.2675 14.7467 24.2675 14.5661 24.2675 13.7534C24.2675 12.9407 24.0868 12.4892 23.9062 12.0377C23.7256 11.5862 23.4548 11.1347 23.0936 10.7735C22.7324 10.4123 22.2808 10.1414 21.8293 9.96081C21.3778 9.7802 20.8361 9.68991 20.1137 9.59961C19.301 9.59961 19.1203 9.59961 17.1337 9.59961Z" fill="#C3C2E0"/>
<path d="M17.1347 13.1226C15.0578 13.1226 13.4324 14.748 13.4324 16.8249C13.4324 18.9018 15.0578 20.5272 17.1347 20.5272C19.2116 20.5272 20.837 18.9018 20.837 16.8249C20.837 14.748 19.2116 13.1226 17.1347 13.1226ZM17.1347 19.1727C15.7802 19.1727 14.6966 18.0891 14.6966 16.7346C14.6966 15.3801 15.7802 14.2965 17.1347 14.2965C18.4892 14.2965 19.5728 15.3801 19.5728 16.7346C19.5728 18.0891 18.4892 19.1727 17.1347 19.1727Z" fill="#C3C2E0"/>
<path d="M21.8291 12.9421C21.8291 13.3936 21.4679 13.8451 20.9261 13.8451C20.3843 13.8451 20.0231 13.4839 20.0231 12.9421C20.0231 12.4906 20.3843 12.0391 20.9261 12.0391C21.4679 12.0391 21.8291 12.4906 21.8291 12.9421Z" fill="#C3C2E0"/>
</svg>
