<svg width="34" height="34" viewBox="0 0 34 34" fill="none" xmlns="http://www.w3.org/2000/svg">
<rect width="33.6" height="33.6" rx="6" fill="#F6F8FC"/>
<path d="M12.4595 12.155C12.4593 12.5142 12.3085 12.8587 12.0402 13.1126C11.772 13.3665 11.4082 13.509 11.029 13.5088C10.6498 13.5086 10.2862 13.3658 10.0182 13.1116C9.75024 12.8575 9.59979 12.5129 9.59998 12.1536C9.60017 11.7944 9.75098 11.4499 10.0192 11.1961C10.2875 10.9422 10.6513 10.7996 11.0304 10.7998C11.4096 10.8 11.7732 10.9429 12.0412 11.197C12.3092 11.4512 12.4597 11.7958 12.4595 12.155V12.155ZM12.5024 14.5118H9.64287V22.991H12.5024V14.5118ZM17.0204 14.5118H14.1752V22.991H16.9918V18.5415C16.9918 16.0627 20.4018 15.8325 20.4018 18.5415V22.991H23.2256V17.6204C23.2256 13.4418 18.1785 13.5975 16.9918 15.6496L17.0204 14.5118V14.5118Z" fill="#C3C2E0"/>
</svg>
