<svg width="101" height="106" viewBox="0 0 101 106" fill="none" xmlns="http://www.w3.org/2000/svg">
<path d="M31.2617 41.8887C42.7281 41.8887 52.0234 32.5159 52.0234 20.9539C52.0234 9.39189 42.7281 0.019043 31.2617 0.019043C19.7952 0.019043 10.4999 9.39189 10.4999 20.9539C10.4999 32.5159 19.7952 41.8887 31.2617 41.8887Z" fill="#F3C175"/>
<path d="M40.4392 52.0735H22.0795C9.9291 52.0735 0.0769043 62.0053 0.0769043 74.2613L0.0769043 105.015L62.4418 105.015V74.2613C62.4418 62.0053 52.5896 52.0735 40.4392 52.0735Z" fill="#F3C175"/>
<path d="M69.3503 41.8892C80.8167 41.8892 90.112 32.5164 90.112 20.9544C90.112 9.39237 80.8167 0.0195312 69.3503 0.0195312C57.8839 0.0195312 48.5885 9.39237 48.5885 20.9544C48.5885 32.5164 57.8839 41.8892 69.3503 41.8892Z" fill="#FFE7C5"/>
<path d="M78.5271 52.0742H60.1674C48.017 52.0742 38.1648 62.006 38.1648 74.262V105.016H100.53V74.262C100.53 62.006 90.6775 52.0742 78.5271 52.0742Z" fill="#FFE7C5"/>
</svg>
