<svg width="109" height="103" viewBox="0 0 109 103" fill="none" xmlns="http://www.w3.org/2000/svg">
<path d="M29.8144 7.13959L25.4771 1.47089C24.2997 -0.0675596 22.0317 -0.408787 20.4116 0.709334C18.7913 1.82725 18.4321 3.98096 19.6094 5.51961L23.9467 11.1883C25.1248 12.7276 27.393 13.0676 29.0123 11.9499C30.6326 10.8321 30.9917 8.67824 29.8144 7.13959Z" fill="white" fill-opacity="0.4"/>
<path d="M14.8733 60.5326C14.2511 58.6127 12.1952 57.5609 10.2803 58.1855L3.08373 60.5309C1.16921 61.1544 0.121602 63.217 0.743544 65.1374C1.36677 67.0612 3.42695 68.1076 5.33656 67.4844L12.5333 65.1391C14.4478 64.5155 15.4954 62.4529 14.8733 60.5326Z" fill="white" fill-opacity="0.4"/>
<path d="M89.8642 0.709393C88.2442 -0.40873 85.9762 -0.0677039 84.7988 1.47095L80.4615 7.13966C79.2841 8.67831 79.6434 10.8322 81.2637 11.9499C82.8846 13.0683 85.1521 12.7264 86.3292 11.1884L90.6664 5.51968C91.8438 3.98103 91.4845 1.82731 89.8642 0.709393Z" fill="white" fill-opacity="0.4"/>
<path d="M106.394 60.531L99.6774 58.1857C97.8905 57.5607 95.9713 58.6126 95.3906 60.5327C94.8099 62.4528 95.7877 64.5152 97.5748 65.1391L104.292 67.4845C106.075 68.1078 107.997 67.0601 108.578 65.1374C109.159 63.2173 108.181 61.155 106.394 60.531Z" fill="white" fill-opacity="0.4"/>
<path d="M54.655 87.9482C53.0547 87.9482 51.7573 89.5581 51.7573 91.5437V98.8413C51.7573 100.827 53.0547 102.437 54.655 102.437C56.2553 102.437 57.5527 100.827 57.5527 98.8413V91.5437C57.5529 89.5581 56.2555 87.9482 54.655 87.9482Z" fill="white" fill-opacity="0.4"/>
<path d="M88.0189 28.4019L70.1744 25.8006L62.194 9.57949C59.113 3.31552 50.1999 3.31319 47.1174 9.57928L39.137 25.8006L21.2926 28.4019C14.4021 29.4062 11.6461 37.9088 16.6337 42.7865L29.5461 55.4131L26.498 73.2419C25.3209 80.1259 32.5292 85.3833 38.6954 82.1323L54.6557 73.7141L70.6165 82.1323C76.7898 85.3876 83.988 80.1105 82.8132 73.2419L79.7651 55.4131L92.6777 42.7865C97.6634 37.9105 94.9121 29.4068 88.0189 28.4019Z" fill="white"/>
</svg>
