<svg width="35" height="34" viewBox="0 0 35 34" fill="none" xmlns="http://www.w3.org/2000/svg">
<rect x="0.599976" width="33.6" height="33.6" rx="6" fill="#F6F8FC"/>
<path d="M10.2 22.1137C11.4642 22.9264 12.9993 23.3779 14.6247 23.3779C19.9524 23.3779 23.0226 18.8628 22.842 14.7993C23.3838 14.4381 23.9256 13.8963 24.2868 13.3545C23.745 13.6254 23.2032 13.7157 22.6614 13.806C23.2935 13.4448 23.745 12.903 23.9256 12.1806C23.3838 12.5418 22.7517 12.7224 22.1196 12.903C21.5778 12.3612 20.8554 12 20.0427 12C18.1464 12 16.7919 13.7157 17.2434 15.5217C14.8956 15.4314 12.7284 14.2575 11.2836 12.5418C10.5612 13.806 10.9224 15.5217 12.1866 16.4247C11.7351 16.4247 11.2836 16.2441 10.9224 16.0635C10.9224 17.418 11.8254 18.6822 13.2702 18.9531C12.909 19.0434 12.4575 19.0435 12.006 19.0435C12.3672 20.2174 13.4508 21.03 14.715 21.03C13.2702 21.8428 11.7351 22.2943 10.2 22.1137Z" fill="#C3C2E0"/>
</svg>
