<svg version="1.2" xmlns="http://www.w3.org/2000/svg" viewBox="0 0 1920 2120" width="1920" height="2120"><style>.a{opacity:.5;fill:#80287b}.b{opacity:.3;fill:#3c2863}</style><g style="opacity:.1"><path class="a" d="m-411.1 243.1c0 0 1.5 5.2 5.7 12.4 2.2 3.9 5.2 8.4 9.1 13.3 3.9 5.2 8.8 10.8 14.9 16.4 3 2.9 6.4 5.9 10 8.8 3.7 3.1 7.7 6.1 12 9 4.3 3.1 9 6.1 14 8.9 5.1 2.9 10.4 5.7 16.2 8.3 5.8 2.8 11.9 5.3 18.4 7.6 6.6 2.4 13.5 4.5 20.9 6.3 7.3 2 15.1 3.6 23.3 4.9 8.2 1.4 16.9 2.5 26 3.1 12.5 1.2 25.1 1 37.9-0.3 12.8-0.8 25.8-2.7 39.1-5.4q10-1.7 20.1-3.9 10.3-2 20.8-4.4 10.5-2.1 21.3-4.4 10.9-2.1 22-4.2 11.3-1.8 22.9-3.6 11.6-1.5 23.6-2.8 12.1-1 24.7-1.7 12.5-0.5 25.6-0.4 13 0.2 26.6 1.1 13.6 1.1 27.7 2.8 14.2 1.9 28.8 4.6 14.8 2.9 30 6.5 15.3 3.9 31.1 8.6 15.9 5 32.3 10.8 16.5 6 33.5 12.9 17.1 7 34.7 15.1 17.7 8.2 35.9 17.4 18.3 9.3 37.1 19.7 18.9 10.6 38.4 22.2 19.5 11.7 39.6 24.6 20.1 13 40.8 27.1 20.8 14.3 42.1 29.9 21.4 15.7 43.5 32.7 22.1 17.1 44.8 35.7 22.8 18.7 46.3 38.9 23.5 20.4 47.7 42.5 24.3 22.1 49.3 46.1 25.1 24.1 51 50.2 25.9 26.3 51.1 50.9 25.2 24.7 49.7 47.7 24.5 22.9 48.2 44.1 23.7 21.2 46.6 40.6 22.9 19.3 45.1 36.7 22 17.4 43.4 33.1 21.2 15.4 41.7 29.2 20.5 13.6 40.1 25.6 19.7 11.8 38.6 22 18.8 10 36.9 18.5 18 8.3 35.3 15.2 17.3 6.7 33.9 12 16.5 5.2 32.3 9.1 15.8 3.8 30.9 6.3 15.1 2.4 29.6 3.8 14.4 1.2 28.1 1.4 13.8 0.1 26.9-0.7 13.1-0.9 25.7-2.6 12.5-1.8 24.4-4.3 11.9-2.5 23.4-5.6 11.3-3.2 22.2-6.8 10.9-3.7 21.3-7.7 10.3-4.2 20.3-8.4 9.9-4.4 19.4-8.8 9.5-4.5 18.6-8.9 9.1-4.6 17.8-8.9 8.7-4.4 17.1-8.5 8.4-4.2 16.5-7.9c10.7-5.1 21.1-9.5 31.1-13 10.1-3.7 19.8-6.4 29.3-7.8q14.2-2.4 27.1-3.3 12.9-1.1 24.6-0.8 11.7 0.1 22.3 1.5c7 0.8 13.7 2.1 20 3.6 12.6 2.9 23.9 7.3 33.9 12.4 9.9 5.1 18.7 11 26.3 17.3 7.5 6.2 14 12.8 19.4 19.3 5.4 6.3 9.8 12.5 13.2 18 6.8 10.8 9.9 18.7 9.9 18.7 0 0 0-4.5 0-12.8 0-8.4 0-20.7 0-36.3 0-7.8 0-16.5 0-25.9 0-9.4 0-19.6 0-30.5 0-10.9 0-22.5 0-34.7 0-12.2 0-25.1 0-38.5q0-10-0.1-20.5 0-10.4 0-21.3 0-10.8 0-22 0-11.2 0-22.7 0-11.5 0-23.3 0-11.8 0-23.9 0-12.1 0-24.5 0-12.3 0-24.9 0-12.5 0-25.3 0-12.8 0-25.7 0-12.9 0-26 0-13.1 0-26.3 0-13.2 0-26.4 0-13.3 0-26.7 0-13.3 0-26.7 0-13.4-0.1-26.8 0-13.4 0-26.8 0-13.4 0-26.7 0-13.4 0-26.7 0-13.2 0-26.4 0-13.2 0-26.3 0-13.1 0-26 0-12.9 0-25.7 0-12.8 0-25.3 0-12.6 0-24.9 0-12.4 0-24.5 0-12.1 0-23.9 0-11.8 0-23.3 0-11.5 0-22.7 0-11.2 0-22 0-10.9 0-21.3-0.1-10.5-0.1-20.5c0-13.4 0-26.3 0-38.5 0-12.2 0-23.8 0-34.7 0-10.9 0-21.1 0-30.5 0-9.4 0-18.1 0-25.9 0-15.6 0-27.9 0-36.3 0-8.3 0-12.8 0-12.8 0 0-7.5 0-21.6 0-7 0-15.7 0-25.9 0-10.2 0-21.9 0-35 0q-9.9 0-20.8 0-10.9 0-22.7 0-11.9 0-24.7 0-12.9 0-26.6 0-13.7 0-28.3 0-14.6 0-30 0-15.3 0-31.5 0-16.2 0-33.1 0-16.8 0-34.4 0-17.6 0-35.8 0-18.2 0-37 0-18.8 0-38.1 0-19.4 0-39.2 0-10 0-20 0-10.1 0-20.2 0-10.2 0-20.4 0-10.3 0-20.7 0-10.3 0-20.8 0-10.5 0-21 0-10.6 0-21.2 0-10.6 0-21.4 0-10.7 0-21.5 0-10.8 0-21.6 0-10.9 0-21.8 0-10.9 0-21.9 0-11 0-22 0-11.1 0-22.1 0-11.1 0-22.2 0-11.2 0-22.3 0-11.2 0-22.4 0-11.2 0-22.4 0-11.2 0-22.4 0-11.2 0-22.5 0-11.2 0-22.5 0-11.2 0-22.5 0-11.3 0-22.5 0-11.3 0-22.5 0-11.3 0-22.5 0-11.2 0-22.4 0-11.2 0-22.4 0-11.2 0-22.4 0-11.1 0-22.3 0-11.1 0-22.2 0-11 0-22.1 0-11 0-22 0-11 0-21.9 0-10.9 0-21.8 0-10.8 0-21.6 0-10.8 0-21.5 0-10.8 0-21.4 0-10.6 0-21.2 0-10.5 0-21 0-10.5 0-20.8 0-10.4 0-20.7 0-10.2 0-20.4 0-10.1 0-20.2 0-10 0-20 0-19.8 0-39.2 0-19.3 0-38.1 0-18.8 0-37 0-18.2 0-35.8 0-17.6 0-34.4 0-16.9 0-33.1 0-16.2 0-31.5 0-15.4 0-30 0-14.6 0-28.3 0-13.7 0-26.6 0-12.8 0-24.7 0-11.8 0-22.7 0-10.9 0-20.8 0c-13.1 0-24.8 0-35 0-10.2 0-18.9 0-25.9 0-14.1 0-21.6 0-21.6 0 0 0 0 6.5-0.1 18.4-0.1 5.8-0.3 12.9-0.5 21-0.3 7.9-0.7 16.7-1.3 26.3-0.6 9.2-1.4 19.1-2.4 29.5q-0.8 7.5-1.8 15.2-1.1 7.6-2.3 15.3-1.3 7.5-2.8 15-1.5 7.3-3.3 14.4-1.9 7-4 13.8-2.2 6.5-4.6 12.8-2.5 6-5.3 11.7-2.8 5.4-5.9 10.4-3.2 4.7-6.7 9-3.5 4.1-7.4 7.6-3.9 3.3-8 6.1-4.3 2.5-8.8 4.5-4.6 1.7-9.4 2.9-4.9 1-10.1 1.4-5.2 0.2-10.6-0.1-5.5-0.5-11.2-1.5-5.8-1.2-11.8-2.8-6-1.8-12.1-4-6.2-2.4-12.6-5-6.4-2.9-12.9-6-6.5-3.2-13.1-6.6-6.6-3.5-13.3-7.2-6.7-3.7-13.4-7.5-6.7-3.9-13.4-7.7-6.7-3.9-13.4-7.7-6.6-3.8-13.2-7.5-6.6-3.6-13.1-7.1-6.4-3.3-12.8-6.5-6.3-3.1-12.4-5.9-6.1-2.6-12.1-5-5.9-2.2-11.6-4.1-5.7-1.7-11.1-3-5.4-1.1-10.6-1.9-5.1-0.5-10-0.7-4.8 0-9.4 0.5-4.5 0.6-8.8 1.6-4.2 1.3-8.1 2.9-3.9 1.8-7.5 3.9-3.6 2.4-6.8 5-3.3 2.8-6.2 5.9-2.9 3.3-5.6 6.7-2.6 3.7-5 7.4-2.3 3.9-4.4 7.9-2 4.1-3.8 8.2c-2.3 5.7-4.4 11.2-6.1 16.5-1.7 5.5-3.2 10.7-4.4 15.3-1.2 4.8-2.2 9.1-2.9 12.6-1.4 7.2-2.2 11.2-2.2 11.2z"/><path class="b" d="m-1 804.3c0 0 48.5-180.5 191-207.7 195.3-37.1 162-457.8 801.5-419.3 639.5 38.4 602-387.3 740.5-467.9 138.5-80.7 188 7.7 188 7.7v-886.8l-1921 365.7z"/></g></svg>