<svg width="1920" height="393" viewBox="0 0 1920 393" fill="none" xmlns="http://www.w3.org/2000/svg">
<g clip-path="url(#clip0_625_23475)">
<rect width="1920" height="393" fill="url(#paint0_linear_625_23475)"/>
<g opacity="0.1">
<path d="M0 793.458C0 793.458 48.4748 876.374 190.901 876.374C386.104 876.374 569.703 659.264 991.983 709.422C1414.26 759.58 1593.67 538.735 1732.1 504.747C1870.53 470.759 1920 532.012 1920 532.012V-22.9999H0V793.458Z" fill="white" fill-opacity="0.4"/>
<path d="M0 284.189C0 284.189 48.4748 315.385 190.901 315.385C386.104 315.385 569.703 233.699 991.983 252.571C1414.26 271.442 1593.67 188.35 1732.1 175.563C1870.53 162.775 1920 185.821 1920 185.821V-23H0V284.189Z" fill="white"/>
<path d="M1920 839.024C1920 839.024 1871.53 747.145 1729.1 747.145C1533.9 747.145 1567.18 518.363 928.017 604.182C288.85 690 326.33 458.021 187.902 428.916C49.474 399.812 4.75645e-05 452.264 4.75645e-05 452.264V-23H1920V839.024Z" fill="white" fill-opacity="0.1"/>
</g>
</g>
<defs>
<linearGradient id="paint0_linear_625_23475" x1="654.5" y1="195.968" x2="1637.98" y2="351.465" gradientUnits="userSpaceOnUse">
<stop stop-color="#006571"/>
<stop offset="1" stop-color="#013038"/>
</linearGradient>
<clipPath id="clip0_625_23475">
<rect width="1920" height="393" fill="white"/>
</clipPath>
</defs>
</svg>
