<svg width="1920" height="1003" viewBox="0 0 1920 1003" fill="none" xmlns="http://www.w3.org/2000/svg">
<g opacity="0.1">
<path d="M-1 274.333C-1 274.333 47.5 200.333 190 200.333C385.305 200.333 569 394.098 991.5 349.333C1414 304.568 1593.5 501.667 1732 532C1870.5 562.333 1920 507.667 1920 507.667V1003H-1V274.333Z" fill="#80287B" fill-opacity="0.5"/>
<path d="M-1 728.842C-1 728.842 47.5 701 190 701C385.305 701 569 773.903 991.5 757.061C1414 740.218 1593.5 814.375 1732 825.788C1870.5 837.201 1920 816.633 1920 816.633V1003H-1V728.842Z" fill="#3C2863"/>
<path d="M1779 91.8239C1779 91.8239 1730.5 0 1588 0C1392.69 0 1209 240.436 786.5 184.889C364 129.342 184.5 373.914 45.9999 411.553C-92.5002 449.193 -142 381.359 -142 381.359V996H1779V91.8239Z" fill="#3C2863" fill-opacity="0.15"/>
<path d="M1920 233.667C1920 233.667 1871.5 315.667 1729 315.667C1533.69 315.667 1567 519.848 927.5 443.257C288 366.667 325.5 573.702 187 599.677C48.4998 625.652 -1 578.84 -1 578.84V1003H1920V233.667Z" fill="#3C2863" fill-opacity="0.35"/>
</g>
</svg>
