<svg width="24" height="24" viewBox="0 0 24 24" fill="none" xmlns="http://www.w3.org/2000/svg">
<g id="Layer 5">
<path id="Vector" d="M22.2514 9.67655C21.8889 9.45647 21.5633 9.17615 21.2872 8.84663C21.3151 8.38786 21.4197 7.93774 21.5963 7.51667C21.9211 6.5597 22.2882 5.47568 21.699 4.63294C21.1098 3.7902 19.9972 3.81701 19.0208 3.84032C18.5893 3.88669 18.1535 3.85595 17.7319 3.7494C17.5073 3.36767 17.3469 2.94861 17.2576 2.51036C16.9809 1.52541 16.6651 0.412251 15.6954 0.0788851C14.7602 -0.235831 13.8943 0.456544 13.1287 1.06499C12.7984 1.38008 12.4157 1.62936 11.9994 1.8005C11.5788 1.63075 11.1918 1.38141 10.8579 1.06499C10.0946 0.460041 9.23197 -0.239327 8.29237 0.0800508C7.32487 0.408754 7.00907 1.52541 6.73009 2.51036C6.64096 2.94719 6.48215 3.36525 6.26029 3.74707C5.83793 3.85333 5.40151 3.88485 4.96917 3.84032C3.9894 3.81235 2.88576 3.78204 2.29098 4.63294C1.69619 5.48384 2.06779 6.5597 2.39364 7.5155C2.57268 7.93595 2.67885 8.38626 2.70721 8.84547C2.43167 9.17542 2.10637 9.45615 1.74418 9.67655C0.927326 10.2594 0 10.9226 0 11.9996C0 13.0766 0.927326 13.7375 1.74418 14.3227C2.10629 14.5427 2.43158 14.8231 2.70721 15.1526C2.68183 15.6116 2.57868 16.0623 2.40257 16.4837C2.07895 17.4395 1.71293 18.5236 2.30102 19.3663C2.88911 20.209 3.99833 20.1822 4.97922 20.1589C5.41104 20.1125 5.84728 20.1432 6.26921 20.2498C6.49282 20.632 6.6528 21.0509 6.74236 21.4889C7.01911 22.4738 7.33491 23.587 8.30465 23.9204C8.46012 23.9724 8.62234 23.9992 8.78561 23.9996C9.57033 23.882 10.2997 23.5092 10.8701 22.9342C11.2005 22.6192 11.5832 22.3699 11.9994 22.1987C12.42 22.3685 12.807 22.6178 13.141 22.9342C13.9054 23.5439 14.7714 24.2397 15.7076 23.9192C16.6751 23.5905 16.9909 22.4738 17.2699 21.49C17.3593 21.0524 17.5193 20.6338 17.7431 20.2522C18.1638 20.1452 18.5989 20.1136 19.0297 20.1589C20.0095 20.1834 21.1131 20.2172 21.7079 19.3663C22.3027 18.5154 21.9311 17.4395 21.6052 16.4826C21.4274 16.0625 21.3213 15.6132 21.2917 15.1549C21.5674 14.8247 21.8931 14.5439 22.2558 14.3239C23.0727 13.741 24 13.0766 24 11.9996C24 10.9226 23.0693 10.2605 22.2514 9.67655Z" fill="#FFB8F5"/>
<path id="Vector_2" d="M10.7972 16.0459C10.6798 16.0462 10.5636 16.0184 10.4552 15.9643C10.3468 15.9102 10.2484 15.8308 10.1657 15.7307L7.78257 12.8657C7.62472 12.6621 7.53878 12.3927 7.54286 12.1143C7.54695 11.836 7.64074 11.5704 7.80447 11.3736C7.96821 11.1768 8.1891 11.064 8.42062 11.0591C8.65214 11.0542 8.8762 11.1575 9.04561 11.3473L10.8806 13.5533L15.0272 9.81449C15.2168 9.64352 15.4551 9.57011 15.6897 9.61041C15.9244 9.65071 16.1361 9.80141 16.2783 10.0294C16.4205 10.2573 16.4815 10.5439 16.448 10.8259C16.4145 11.108 16.2892 11.3625 16.0995 11.5335L11.3334 15.831C11.1786 15.9704 10.9905 16.0458 10.7972 16.0459Z" fill="white"/>
</g>
</svg>
