<svg width="24" height="24" viewBox="0 0 24 24" fill="none" xmlns="http://www.w3.org/2000/svg">
<g id="Frame 162">
<g id="Group 1120">
<g id="Group">
<path id="Vector" d="M11.9994 10.0292C14.2513 10.0292 16.0769 8.20364 16.0769 5.9517C16.0769 3.69975 14.2513 1.87419 11.9994 1.87419C9.74744 1.87419 7.92188 3.69975 7.92188 5.9517C7.92188 8.20364 9.74744 10.0292 11.9994 10.0292Z" fill="#90438B"/>
<path id="Vector_2" d="M20.2496 10.0291C21.6733 10.0291 22.8273 8.87505 22.8273 7.45141C22.8273 6.02776 21.6733 4.87367 20.2496 4.87367C18.826 4.87367 17.6719 6.02776 17.6719 7.45141C17.6719 8.87505 18.826 10.0291 20.2496 10.0291Z" fill="#90438B"/>
<path id="Vector_3" d="M3.75156 10.0291C5.17521 10.0291 6.3293 8.87505 6.3293 7.45141C6.3293 6.02776 5.17521 4.87367 3.75156 4.87367C2.32792 4.87367 1.17383 6.02776 1.17383 7.45141C1.17383 8.87505 2.32792 10.0291 3.75156 10.0291Z" fill="#90438B"/>
<path id="Vector_4" d="M6.29116 12.3434C5.27647 11.5121 4.35753 11.6221 3.18428 11.6221C1.42955 11.6221 0.00195312 13.0413 0.00195312 14.7853V19.9037C0.00195312 20.6611 0.620141 21.2769 1.38034 21.2769C4.66231 21.2769 4.26693 21.3363 4.26693 21.1354C4.26693 17.5085 3.83734 14.8487 6.29116 12.3434Z" fill="#90438B"/>
<path id="Vector_5" d="M13.1141 11.6419C11.0649 11.4709 9.28365 11.6438 7.74728 12.912C5.17625 14.9714 5.67103 17.7442 5.67103 21.1364C5.67103 22.0338 6.40123 22.7777 7.31234 22.7777C17.2053 22.7777 17.5991 23.0968 18.1857 21.7977C18.3781 21.3583 18.3254 21.4979 18.3254 17.2951C18.3254 13.9569 15.4349 11.6419 13.1141 11.6419Z" fill="#90438B"/>
<path id="Vector_6" d="M20.8178 11.6228C19.6381 11.6228 18.7243 11.5139 17.7109 12.3441C20.1464 14.8307 19.7352 17.3091 19.7352 21.1361C19.7352 21.3383 19.4069 21.2776 22.5725 21.2776C23.3599 21.2776 24.0001 20.6397 24.0001 19.8556V14.7859C24.0001 13.042 22.5725 11.6228 20.8178 11.6228Z" fill="#90438B"/>
</g>
</g>
</g>
</svg>
