<svg width="24" height="24" viewBox="0 0 24 24" fill="none" xmlns="http://www.w3.org/2000/svg">
<g id="Frame 161">
<path id="Vector" d="M12 0C9.61402 0.00316505 7.32668 0.952392 5.63953 2.63953C3.95239 4.32667 3.00317 6.61402 3 8.99999C3 15.4612 11.385 23.5537 11.7413 23.895C11.8105 23.9623 11.9034 24 12 24C12.0966 24 12.1895 23.9623 12.2587 23.895C12.615 23.5537 21 15.4612 21 8.99999C20.9968 6.61402 20.0476 4.32667 18.3605 2.63953C16.6733 0.952392 14.386 0.00316505 12 0ZM12 13.125C11.1842 13.125 10.3866 12.8831 9.70827 12.4298C9.02992 11.9765 8.50121 11.3323 8.189 10.5786C7.87679 9.82481 7.7951 8.99541 7.95426 8.19524C8.11343 7.39507 8.50629 6.66007 9.08318 6.08318C9.66008 5.50629 10.3951 5.11342 11.1953 4.95426C11.9954 4.79509 12.8248 4.87678 13.5786 5.18899C14.3323 5.5012 14.9766 6.02991 15.4298 6.70827C15.8831 7.38662 16.125 8.18414 16.125 8.99999C16.1243 10.0938 15.6895 11.1426 14.9161 11.9161C14.1426 12.6895 13.0938 13.1243 12 13.125Z" fill="#90438B"/>
</g>
</svg>
