<svg width="24" height="24" viewBox="0 0 24 24" fill="none" xmlns="http://www.w3.org/2000/svg">
<g id="Frame 163">
<g id="Group 1121">
<g id="Layer 93">
<path id="Vector" d="M19.7 3.3H18.6V1.1C18.6 0.808262 18.4841 0.528472 18.2778 0.322183C18.0715 0.115892 17.7917 0 17.5 0C17.2083 0 16.9285 0.115892 16.7222 0.322183C16.5159 0.528472 16.4 0.808262 16.4 1.1V3.3H7.6V1.1C7.6 0.808262 7.48411 0.528472 7.27782 0.322183C7.07153 0.115892 6.79174 0 6.5 0C6.20826 0 5.92847 0.115892 5.72218 0.322183C5.51589 0.528472 5.4 0.808262 5.4 1.1V3.3H4.3C3.42479 3.3 2.58542 3.64768 1.96655 4.26655C1.34768 4.88542 1 5.72479 1 6.6V7.7H23V6.6C23 5.72479 22.6523 4.88542 22.0335 4.26655C21.4146 3.64768 20.5752 3.3 19.7 3.3Z" fill="#90438B"/>
<path id="Vector_2" d="M1 18.7004C1 19.5756 1.34768 20.415 1.96655 21.0338C2.58542 21.6527 3.42479 22.0004 4.3 22.0004H19.7C20.5752 22.0004 21.4146 21.6527 22.0335 21.0338C22.6523 20.415 23 19.5756 23 18.7004V9.90039H1V18.7004Z" fill="#90438B"/>
</g>
</g>
</g>
</svg>
