<svg width="24" height="24" viewBox="0 0 24 24" fill="none" xmlns="http://www.w3.org/2000/svg">
<g id="world-down_1 1" clip-path="url(#clip0_269_783)">
<g id="Group">
<path id="Vector" d="M22.8394 12.0751C22.8516 11.8557 22.8581 11.6373 22.8581 11.4203C22.8572 5.40105 18.1566 0.365265 12.0745 0.0193279C11.8552 0.00714043 11.6367 0.000577927 11.4197 0.000577927C5.40047 0.00151543 0.364688 4.70167 0.01875 10.7842C0.0065625 11.0035 0 11.222 0 11.439C0.00046875 17.4582 4.70109 22.494 10.7831 22.84C10.9983 22.8521 11.2139 22.8582 11.4291 22.8582C11.6536 22.8582 11.8781 22.8517 12.1027 22.8385C12.7327 22.8015 13.2131 22.2606 13.1761 21.6301C13.1391 21.0001 12.5981 20.5196 11.9677 20.5567C11.7881 20.5675 11.6086 20.5726 11.4291 20.5726C11.2566 20.5726 11.0845 20.5679 10.9125 20.5581C6.04734 20.2843 2.28516 16.2489 2.28562 11.439C2.28562 11.2651 2.29031 11.0898 2.30063 10.9135C2.57438 6.04839 6.60984 2.2862 11.4197 2.28667C11.5936 2.28667 11.7689 2.29136 11.9452 2.30167C16.8103 2.57542 20.5725 6.61089 20.572 11.4207C20.572 11.5946 20.5673 11.77 20.557 11.9462C20.5214 12.5762 21.0033 13.1162 21.6337 13.1518C22.2638 13.187 22.8037 12.7051 22.8394 12.0751Z" fill="#90438B"/>
<path id="Vector_2" d="M1.82836 9.14297H21.0284C21.6598 9.14297 22.1712 8.6311 22.1712 8.00016C22.1712 7.36875 21.6593 6.85735 21.0284 6.85735H1.82836C1.19695 6.85735 0.685547 7.36922 0.685547 8.00016C0.685547 8.6311 1.19695 9.14297 1.82836 9.14297Z" fill="#90438B"/>
<path id="Vector_3" d="M1.82836 15.9998H14.2854C14.9168 15.9998 15.4282 15.488 15.4282 14.857C15.4282 14.2261 14.9163 13.7142 14.2854 13.7142H1.82836C1.19695 13.7142 0.685547 14.2261 0.685547 14.857C0.685547 15.488 1.19695 15.9998 1.82836 15.9998Z" fill="#90438B"/>
<path id="Vector_4" d="M9.88711 0.538129C7.80773 3.87 6.76758 7.65047 6.76758 11.4286C6.76758 15.2072 7.80773 18.9877 9.88711 22.3191C10.2213 22.8544 10.9263 23.0175 11.4616 22.6838C11.997 22.3495 12.1601 21.6445 11.8263 21.1092C9.97758 18.1463 9.05367 14.7886 9.05367 11.4286C9.05367 8.0686 9.97758 4.71094 11.8263 1.74797C12.1605 1.21266 11.9974 0.507661 11.4616 0.173442C10.9263 -0.160777 10.2213 0.00234814 9.88711 0.538129Z" fill="#90438B"/>
<path id="Vector_5" d="M11.0309 1.74797C12.8872 4.725 13.8026 7.93219 13.8041 11.2134C13.8041 12.3488 13.6939 13.4934 13.4726 14.6405C13.3531 15.2602 13.7586 15.8597 14.3783 15.9792C14.998 16.0988 15.5975 15.6933 15.717 15.0736C15.9655 13.7869 16.0901 12.4964 16.0901 11.2134C16.0916 7.50282 15.042 3.85454 12.9701 0.537661C12.6359 0.0023485 11.9309 -0.160776 11.3956 0.173442C10.8598 0.507661 10.6967 1.21266 11.0309 1.74797Z" fill="#90438B"/>
<path id="Vector_6" d="M22.6626 21.0445L17.8141 16.196C17.3676 15.7495 16.644 15.7498 16.1979 16.196C15.7514 16.6425 15.7517 17.366 16.1979 17.8122L21.0464 22.6607C21.4929 23.1072 22.2165 23.1069 22.6626 22.6607C23.1088 22.2146 23.1088 21.4907 22.6626 21.0445Z" fill="#90438B"/>
<path id="Vector_7" d="M18.1469 21.8526L18.1469 18.1469L21.8526 18.1469C22.4837 18.1469 22.9954 17.6352 22.9954 17.0041C22.9954 16.373 22.4837 15.8612 21.8526 15.8612L17.004 15.8612C16.3729 15.8612 15.8612 16.373 15.8612 17.0041L15.8612 21.8526C15.8612 22.4837 16.3729 22.9955 17.004 22.9955C17.6355 22.9952 18.1469 22.4837 18.1469 21.8526Z" fill="#90438B"/>
</g>
</g>
<defs>
<clipPath id="clip0_269_783">
<rect width="24" height="24" fill="white"/>
</clipPath>
</defs>
</svg>
